<svg xmlns="http://www.w3.org/2000/svg" version="1" width="140" height="140" viewBox="0 0 140 140" preserveAspectRatio="xMidYMid meet">

<g transform="translate(0.000000,140.000000) scale(0.100000,-0.100000)" fill="#000000" stroke="none"><path class="jk-logo" d="M716 1284c-27-14-62-34-78-45-28-20-37-52-18-64 20-12 9-31-43-71-52-41-234-131-272-134-47-5-48-3-42 60 4 52 2 62-13 70-46 25-125-2-136-46-8-32 31-109 69-138 46-34 144-29 227 11 58 28 67 30 82 16 35-32 40-67 35-255-5-189-20-286-56-369-40-91-64-99-111-34-37 51-85 44-116-16-21-41-11-75 28-99 84-51 185-27 238 57 28 44 94 236 105 305 8 50 24 42 70-35 108-178 241-317 302-317 24 0 133 87 133 106 0 9-28 28-67 46-72 32-180 127-252 223-63 82-63 84 26 151 141 105 202 177 216 252 6 31 5 33-16 26-30-9-132-70-147-89-10-13-10-19 5-35 9-10 15-23 14-28-7-19-243-202-261-202-4 0-8 80-8 178-1 97-5 196-9 220-8 41-7 43 30 73 67 53 144 179 122 200-5 4-30-3-57-17z"/></g></svg>